<svg width="144" height="144" viewBox="0 0 144 144" fill="none" xmlns="http://www.w3.org/2000/svg">
<rect width="144" height="144" fill="url(#paint0_linear_25_246)"/>
<path d="M120 74.5C120 76.1569 118.657 77.5 117 77.5H107C105.343 77.5 104 78.8431 104 80.5V106.5C104 108.157 102.657 109.5 101 109.5H43C41.3431 109.5 40 108.157 40 106.5V80.5C40 78.8431 38.6569 77.5 37 77.5H27C25.3431 77.5 24 76.1569 24 74.5V72.5C24 70.8431 25.3431 69.5 27 69.5H117C118.657 69.5 120 70.8431 120 72.5V74.5Z" fill="white"/>
<path d="M43.431 55.555V38.596C43.431 38.1982 43.589 37.8166 43.8703 37.5353C44.1516 37.254 44.5332 37.096 44.931 37.096H44.973C45.3708 37.096 45.7524 37.254 46.0337 37.5353C46.315 37.8166 46.473 38.1982 46.473 38.596V59.695C46.7685 62.6485 44.343 65.68 40.662 66.7345C36.627 67.8925 32.61 66.235 31.692 63.0325C30.774 59.83 33.3015 56.296 37.338 55.138C39.543 54.5065 41.7405 54.715 43.431 55.555Z" fill="white"/>
<path d="M65.431 55.555V38.596C65.431 38.1982 65.589 37.8166 65.8703 37.5353C66.1516 37.254 66.5332 37.096 66.931 37.096H66.973C67.3708 37.096 67.7524 37.254 68.0337 37.5353C68.315 37.8166 68.473 38.1982 68.473 38.596V59.695C68.7685 62.6485 66.343 65.68 62.662 66.7345C58.627 67.8925 54.61 66.235 53.692 63.0325C52.774 59.83 55.3015 56.296 59.338 55.138C61.543 54.5065 63.7405 54.715 65.431 55.555Z" fill="white"/>
<path d="M87.431 55.555V38.596C87.431 38.1982 87.589 37.8166 87.8703 37.5353C88.1516 37.254 88.5332 37.096 88.931 37.096H88.973C89.3708 37.096 89.7524 37.254 90.0337 37.5353C90.315 37.8166 90.473 38.1982 90.473 38.596V59.695C90.7685 62.6485 88.343 65.68 84.662 66.7345C80.627 67.8925 76.61 66.235 75.692 63.0325C74.774 59.83 77.3015 56.296 81.338 55.138C83.543 54.5065 85.7405 54.715 87.431 55.555Z" fill="white"/>
<path d="M109.431 55.555V38.596C109.431 38.1982 109.589 37.8166 109.87 37.5353C110.152 37.254 110.533 37.096 110.931 37.096H110.973C111.371 37.096 111.752 37.254 112.034 37.5353C112.315 37.8166 112.473 38.1982 112.473 38.596V59.695C112.769 62.6485 110.343 65.68 106.662 66.7345C102.627 67.8925 98.61 66.235 97.692 63.0325C96.774 59.83 99.3015 56.296 103.338 55.138C105.543 54.5065 107.741 54.715 109.431 55.555Z" fill="white"/>
<defs>
<linearGradient id="paint0_linear_25_246" x1="114" y1="-33" x2="-1.67629e-05" y2="183" gradientUnits="userSpaceOnUse">
<stop stop-color="#31FFCE"/>
<stop offset="0.776042" stop-color="#379DE8"/>
</linearGradient>
</defs>
</svg>
