<svg width="42" height="42" viewBox="0 0 42 42" fill="none" xmlns="http://www.w3.org/2000/svg">
<g clip-path="url(#clip0_217_1506)">
<path d="M5.25001 15.75C5.24993 13.1492 5.89391 10.5888 7.12447 8.29754C8.35502 6.00626 10.1338 4.05537 12.3021 2.61907C14.4703 1.18277 16.9605 0.305769 19.5503 0.0663768C22.1401 -0.173015 24.7488 0.232652 27.1436 1.24716C29.5384 2.26166 31.6447 3.85342 33.2744 5.88031C34.9041 7.9072 36.0066 10.3061 36.4832 12.8629C36.9599 15.4197 36.796 18.0547 36.0061 20.5327C35.2163 23.0106 33.8251 25.2545 31.9568 27.0638C31.4239 27.5783 31.0144 28.1138 30.7676 28.6886L28.7674 33.3323C28.6659 33.5676 28.4977 33.7681 28.2836 33.909C28.0695 34.0498 27.8188 34.1249 27.5625 34.125H14.4375C14.1808 34.1255 13.9295 34.0506 13.7149 33.9097C13.5003 33.7688 13.3317 33.568 13.23 33.3323L11.2324 28.686C10.9464 28.0724 10.5423 27.5212 10.0433 27.0638C8.52502 25.5968 7.31806 23.8389 6.4945 21.895C5.67095 19.9511 5.24768 17.8612 5.25001 15.75ZM13.125 38.0625C13.125 37.7144 13.2633 37.3806 13.5094 37.1344C13.7556 36.8883 14.0894 36.75 14.4375 36.75H27.5625C27.9106 36.75 28.2444 36.8883 28.4906 37.1344C28.7367 37.3806 28.875 37.7144 28.875 38.0625C28.875 38.4106 28.7367 38.7444 28.4906 38.9906C28.2444 39.2367 27.9106 39.375 27.5625 39.375L26.9745 40.5484C26.7567 40.9843 26.4217 41.3511 26.0073 41.6074C25.5928 41.8638 25.1151 41.9998 24.6278 42H17.3723C16.8849 41.9998 16.4072 41.8638 15.9928 41.6074C15.5783 41.3511 15.2434 40.9843 15.0255 40.5484L14.4375 39.375C14.0894 39.375 13.7556 39.2367 13.5094 38.9906C13.2633 38.7444 13.125 38.4106 13.125 38.0625Z" fill="#32F3D1"/>
</g>
<defs>
<clipPath id="clip0_217_1506">
<rect width="42" height="42" fill="white"/>
</clipPath>
</defs>
</svg>
