<svg width="42" height="42" viewBox="0 0 42 42" fill="none" xmlns="http://www.w3.org/2000/svg">
<path d="M31.275 15.45C33.8805 15.45 36 13.3305 36 10.725C36 8.1195 33.8805 6 31.275 6C28.6695 6 26.55 8.1195 26.55 10.725C26.55 13.3305 28.6695 15.45 31.275 15.45ZM31.275 18.15C31.95 18.15 32.625 18.0555 33.3 17.8665V26.25C33.3 29.976 30.276 33 26.55 33H15.75C12.024 33 9 29.976 9 26.25V15.45C9 11.724 12.024 8.7 15.75 8.7H24.1335C23.8196 9.80431 23.7662 10.9664 23.9775 12.0948C24.1888 13.2233 24.659 14.2873 25.3512 15.2032C26.0434 16.1192 26.9386 16.862 27.9665 17.3733C28.9944 17.8847 30.1269 18.1505 31.275 18.15Z" fill="black"/>
</svg>
