<svg width="32" height="32" viewBox="0 0 32 32" fill="none" xmlns="http://www.w3.org/2000/svg">
<path d="M13.984 0.714896C14.5541 0.252407 15.2659 0 16 0C16.7341 0 17.4459 0.252407 18.016 0.714896L30.2208 10.6029C30.7758 11.0523 31.2235 11.6199 31.5313 12.2643C31.839 12.9086 31.9992 13.6136 32 14.3277V28.8045C32 29.6532 31.6629 30.4671 31.0627 31.0672C30.4626 31.6674 29.6487 32.0045 28.8 32.0045H22.4C21.5513 32.0045 20.7374 31.6674 20.1373 31.0672C19.5371 30.4671 19.2 29.6532 19.2 28.8045V19.2045H12.8V28.8045C12.8 29.6532 12.4629 30.4671 11.8627 31.0672C11.2626 31.6674 10.4487 32.0045 9.6 32.0045H3.2C2.35131 32.0045 1.53737 31.6674 0.937258 31.0672C0.337142 30.4671 9.39486e-08 29.6532 9.39486e-08 28.8045V14.3309C-0.000141398 13.6157 0.159539 12.9095 0.467369 12.264C0.775199 11.6184 1.2234 11.0498 1.7792 10.5997L13.984 0.714896ZM28.208 13.0861L16 3.2045L3.792 13.0861C3.60679 13.2363 3.45751 13.4261 3.35508 13.6415C3.25265 13.8569 3.19967 14.0924 3.2 14.3309V28.8045H9.6V19.2045C9.6 18.3558 9.93714 17.5419 10.5373 16.9418C11.1374 16.3416 11.9513 16.0045 12.8 16.0045H19.2C20.0487 16.0045 20.8626 16.3416 21.4627 16.9418C22.0629 17.5419 22.4 18.3558 22.4 19.2045V28.8045H28.8V14.3309C28.8003 14.0924 28.7474 13.8569 28.6449 13.6415C28.5425 13.4261 28.3932 13.2363 28.208 13.0861Z" fill="#00CABE"/>
</svg>
