<svg width="42" height="42" viewBox="0 0 42 42" fill="none" xmlns="http://www.w3.org/2000/svg">
<g clip-path="url(#clip0_292_1186)">
<path d="M0 21C0 15.4305 2.21249 10.089 6.15076 6.15076C10.089 2.21249 15.4305 0 21 0C26.5695 0 31.911 2.21249 35.8492 6.15076C39.7875 10.089 42 15.4305 42 21C42 26.5695 39.7875 31.911 35.8492 35.8492C31.911 39.7875 26.5695 42 21 42C15.4305 42 10.089 39.7875 6.15076 35.8492C2.21249 31.911 0 26.5695 0 21ZM21 3.9375C16.4747 3.9375 12.1348 5.73515 8.93499 8.93499C5.73515 12.1348 3.9375 16.4747 3.9375 21C3.9375 25.5253 5.73515 29.8652 8.93499 33.065C12.1348 36.2648 16.4747 38.0625 21 38.0625C25.5253 38.0625 29.8652 36.2648 33.065 33.065C36.2648 29.8652 38.0625 25.5253 38.0625 21C38.0625 16.4747 36.2648 12.1348 33.065 8.93499C29.8652 5.73515 25.5253 3.9375 21 3.9375ZM18.165 15.9731C17.9318 16.4403 17.5252 16.7956 17.0299 16.961C16.5347 17.1264 15.994 17.0883 15.5269 16.8551C15.0597 16.6219 14.7044 16.2127 14.539 15.7174C14.3736 15.2222 14.4117 14.6815 14.6449 14.2144C15.0885 13.3245 15.7894 12.3743 16.8735 11.6498C17.9681 10.92 19.3436 10.5 21 10.5C22.5427 10.4895 24.0483 10.9723 25.2971 11.8781C26.6175 12.8678 27.5625 14.4113 27.5625 16.4062C27.5625 17.5823 27.2606 18.585 26.6989 19.425C26.1607 20.2309 25.4651 20.7716 24.8824 21.1628C24.5963 21.3518 24.3049 21.525 24.0608 21.6746L24.045 21.6851C23.8141 21.8195 23.5865 21.9596 23.3625 22.1051C23.0814 22.2702 22.8352 22.4887 22.638 22.7483C22.3457 23.1764 21.8964 23.472 21.3875 23.5709C20.8786 23.6697 20.3513 23.5639 19.9199 23.2763C19.4886 22.9888 19.1881 22.5427 19.0836 22.035C18.9792 21.5272 19.0792 20.9987 19.362 20.5643C19.845 19.8713 20.4645 19.2806 21.1785 18.8291C21.4489 18.6532 21.7219 18.4826 22.0001 18.3173L22.0185 18.3067C22.281 18.1466 22.4962 18.018 22.6957 17.8841C22.9772 17.7184 23.224 17.5001 23.4229 17.241C23.52 17.0992 23.625 16.8709 23.625 16.4062C23.635 16.1373 23.5772 15.8702 23.457 15.6294C23.3369 15.3886 23.1581 15.1818 22.9372 15.0281C22.3684 14.6351 21.6914 14.4287 21 14.4375C20.0314 14.4375 19.4381 14.6737 19.0575 14.9284C18.6734 15.1921 18.3655 15.5525 18.165 15.9731ZM23.625 28.875C23.625 29.5712 23.3484 30.2389 22.8562 30.7312C22.3639 31.2234 21.6962 31.5 21 31.5C20.3038 31.5 19.6361 31.2234 19.1438 30.7312C18.6516 30.2389 18.375 29.5712 18.375 28.875C18.375 28.1788 18.6516 27.5111 19.1438 27.0188C19.6361 26.5266 20.3038 26.25 21 26.25C21.6962 26.25 22.3639 26.5266 22.8562 27.0188C23.3484 27.5111 23.625 28.1788 23.625 28.875Z" fill="#32F3D1"/>
</g>
<defs>
<clipPath id="clip0_292_1186">
<rect width="42" height="42" fill="white"/>
</clipPath>
</defs>
</svg>
