<svg width="189" height="75" viewBox="0 0 189 75" fill="none" xmlns="http://www.w3.org/2000/svg">
<path d="M4.24414 3.01172V16.5742C6.52734 16.5332 8.63281 16.3691 10.9707 15.8633L11.4355 18.7891C8.37305 19.4453 5.69336 19.5547 2.49414 19.5547H0.744141V3.01172H4.24414ZM21.3613 0.632812V25.5156H18.0801V0.632812H21.3613ZM16.0293 1.09766V24.4219H12.7207V11.3242H7.74414V8.50781H12.7207V1.09766H16.0293ZM39.9551 3.17578C39.9277 6.34766 41.6777 9.19141 45.7246 10.3945L43.8652 13.1016C41.1855 12.2539 39.3262 10.5723 38.2598 8.39844C37.1523 10.8867 35.1426 12.8555 32.1895 13.8125L30.4121 11.0234C34.5957 9.73828 36.4277 6.56641 36.4551 3.25781V1.58984H39.9551V3.17578ZM50.5645 0.632812V5.58203H53.9277V8.39844H50.5645V13.8398H47.0645V0.632812H50.5645ZM40.9668 14.8516V21.168H36.209V22.7266C38.3008 22.7266 39.6816 22.6309 41.3496 22.3164L41.6504 24.9141C39.4629 25.3516 37.6855 25.4062 34.2949 25.3789H32.791V18.7344H37.6035V17.3945H32.7637V14.8516H40.9668ZM50.5645 14.8516V25.3789H42.2793V14.8516H50.5645ZM45.2871 17.3945V22.8633H47.5566V17.3945H45.2871ZM76.2676 0.824219V25.3242H73.7793V0.824219H76.2676ZM71.291 1.28906V24.1211H68.8027V12.3086H66.041C65.8223 17.0938 63.7715 20.0742 60.7363 20.0469C57.5371 20.0742 55.459 16.7109 55.459 11.4062C55.459 6.10156 57.5371 2.76562 60.7363 2.79297C63.7168 2.76562 65.7402 5.5957 66.041 10.2031H68.8027V1.28906H71.291ZM60.7363 5.22656C58.959 5.22656 57.8652 7.49609 57.8652 11.4062C57.8652 15.3164 58.959 17.5859 60.7363 17.5859C62.541 17.5859 63.6621 15.3164 63.6621 11.4062C63.6621 7.49609 62.541 5.22656 60.7363 5.22656ZM98.6348 2.46484V13.0195H87.1777V2.46484H98.6348ZM89.7207 4.54297V10.9414H96.0918V4.54297H89.7207ZM105.471 0.824219V6.51172H109.025V8.67188H105.471V14.7148H102.873V0.824219H105.471ZM105.854 16.082V18.1602H99.1543C99.5098 20.4844 102.695 22.6309 106.865 23.2461L105.908 25.2422C102.189 24.668 99.127 22.959 97.7051 20.6211C96.3105 22.9727 93.2617 24.668 89.5566 25.2148L88.5996 23.2188C92.7969 22.6309 95.9141 20.5527 96.3379 18.1602H89.584V16.082H105.854ZM122.861 0.824219V3.39453H130.518V5.41797H123.025C123.271 7.97461 126.635 9.88867 131.502 10.3398L130.654 12.3359C126.484 11.9121 123.08 10.4082 121.576 7.98828C120.072 10.4082 116.668 11.9121 112.498 12.3359L111.65 10.3398C116.49 9.88867 119.854 7.97461 120.154 5.41797H112.662V3.39453H120.291V0.824219H122.861ZM132.814 13.6758V15.7539H123.08V20.3477H120.51V15.7539H110.393V13.6758H132.814ZM130.326 22.6992V24.8047H113.182V18.0234H115.779V22.6992H130.326ZM161.033 0.632812V6.73047H164.396V9.54688H161.033V15.5898H157.533V0.632812H161.033ZM161.033 16.6836V25.5156H157.533V19.4453H144.271V16.6836H161.033ZM145.502 2.19141V5.5H150.588V2.19141H154.088V14.2773H142.029V2.19141H145.502ZM145.502 11.5156H150.588V8.20703H145.502V11.5156ZM174.678 7.41406C174.65 11.2148 176.674 15.5898 180.775 17.4766L178.834 20.2109C176.059 18.9395 174.076 16.3965 172.982 13.4023C171.861 16.6973 169.824 19.4863 166.939 20.8398L164.916 18.0781C169.072 16.1367 171.15 11.5156 171.178 7.41406V5.88281H165.9V3.03906H179.682V5.88281H174.678V7.41406ZM185.123 0.632812V10.1211H188.787V13.0469H185.123V25.5156H181.623V0.632812H185.123Z" fill="black"/>
<path d="M49.5664 42.4453V61.8203C52.8281 61.7617 55.8359 61.5273 59.1758 60.8047L59.8398 64.9844C55.4648 65.9219 51.6367 66.0781 47.0664 66.0781H44.5664V42.4453H49.5664ZM74.0195 39.0469V74.5938H69.332V39.0469H74.0195ZM66.4023 39.7109V73.0312H61.6758V54.3203H54.5664V50.2969H61.6758V39.7109H66.4023ZM105.973 39.0469V47.7578H110.777V51.7812H105.973V60.4141H100.973V39.0469H105.973ZM105.973 61.9766V74.5938H100.973V65.9219H82.0273V61.9766H105.973ZM83.7852 41.2734V46H91.0508V41.2734H96.0508V58.5391H78.8242V41.2734H83.7852ZM83.7852 54.5938H91.0508V49.8672H83.7852V54.5938ZM125.465 48.7344C125.426 54.1641 128.316 60.4141 134.176 63.1094L131.402 67.0156C127.438 65.1992 124.605 61.5664 123.043 57.2891C121.441 61.9961 118.531 65.9805 114.41 67.9141L111.52 63.9688C117.457 61.1953 120.426 54.5938 120.465 48.7344V46.5469H112.926V42.4844H132.613V46.5469H125.465V48.7344ZM140.387 39.0469V52.6016H145.621V56.7812H140.387V74.5938H135.387V39.0469H140.387Z" fill="#0FC2BF"/>
</svg>
