<svg width="47" height="47" viewBox="0 0 47 47" fill="none" xmlns="http://www.w3.org/2000/svg">
<path d="M44.75 32C44.75 38.0095 44.75 41.0164 42.8821 42.8821C41.0164 44.75 38.0095 44.75 32 44.75H15C8.9905 44.75 5.98362 44.75 4.11787 42.8821C2.25 41.0164 2.25 38.0095 2.25 32V23.5C2.25 17.4905 2.25 14.4836 4.11787 12.6179C5.98362 10.75 8.9905 10.75 15 10.75H32C38.0095 10.75 41.0164 10.75 42.8821 12.6179C44.75 14.4836 44.75 17.4905 44.75 23.5V32Z" stroke="#32F3D1" stroke-width="3.1875"/>
<path d="M17.125 2.25L23.5 9.6875L29.875 2.25M32 10.75V44.75" stroke="#32F3D1" stroke-width="3.1875" stroke-linecap="round"/>
<path d="M36.25 32.625C36.25 32.0614 36.0261 31.5209 35.6276 31.1224C35.2291 30.7239 34.6886 30.5 34.125 30.5C33.5614 30.5 33.0209 30.7239 32.6224 31.1224C32.2239 31.5209 32 32.0614 32 32.625C32 33.1886 32.2239 33.7291 32.6224 34.1276C33.0209 34.5261 33.5614 34.75 34.125 34.75C34.6886 34.75 35.2291 34.5261 35.6276 34.1276C36.0261 33.7291 36.25 33.1886 36.25 32.625ZM36.25 24.125C36.25 23.5614 36.0261 23.0209 35.6276 22.6224C35.2291 22.2239 34.6886 22 34.125 22C33.5614 22 33.0209 22.2239 32.6224 22.6224C32.2239 23.0209 32 23.5614 32 24.125C32 24.6886 32.2239 25.2291 32.6224 25.6276C33.0209 26.0261 33.5614 26.25 34.125 26.25C34.6886 26.25 35.2291 26.0261 35.6276 25.6276C36.0261 25.2291 36.25 24.6886 36.25 24.125Z" fill="#32F3D1"/>
</svg>
