<svg width="64" height="27" viewBox="0 0 64 27" fill="none" xmlns="http://www.w3.org/2000/svg">
<path d="M64 3.33333C64 4.4379 63.1046 5.33333 62 5.33333H55.3333C54.2288 5.33333 53.3333 6.22876 53.3333 7.33333V24.6667C53.3333 25.7712 52.4379 26.6667 51.3333 26.6667H12.6667C11.5621 26.6667 10.6667 25.7712 10.6667 24.6667V7.33334C10.6667 6.22877 9.77124 5.33333 8.66667 5.33333H2C0.895432 5.33333 0 4.4379 0 3.33333V2C0 0.895431 0.895431 0 2 0H62C63.1046 0 64 0.895431 64 2V3.33333Z" fill="white"/>
</svg>
