<svg width="32" height="14" viewBox="0 0 32 14" fill="none" xmlns="http://www.w3.org/2000/svg">
<path d="M32 1.66667C32 2.21895 31.5523 2.66667 31 2.66667H27.6667C27.1144 2.66667 26.6667 3.11438 26.6667 3.66667V12.3333C26.6667 12.8856 26.219 13.3333 25.6667 13.3333H6.33333C5.78105 13.3333 5.33333 12.8856 5.33333 12.3333V3.66667C5.33333 3.11438 4.88562 2.66667 4.33333 2.66667H1C0.447716 2.66667 0 2.21895 0 1.66667V1C0 0.447716 0.447715 0 1 0H31C31.5523 0 32 0.447715 32 1V1.66667Z" fill="white"/>
</svg>
